<svg id="Capa_1" data-name="Capa 1" xmlns="http://www.w3.org/2000/svg" viewBox="0 0 882.64 1151.21"><defs><style>.cls-1{fill:#fff;stroke:#1d1d1b;stroke-miterlimit:10;stroke-width:16px;}</style></defs><path class="cls-1" d="M447.62,958c-22.91,0-45.84.32-68.74-.27-4.64-.12-9.78-2.87-13.72-5.74A664.62,664.62,0,0,1,199.69,778.29c-20.18-30.74-28.73-65.36-33.26-100.57-4.26-33.11-6.89-67.1-4.38-100.26,6.22-82.29,31.68-158.11,91.24-218.1,43.69-44,97-71.37,159.09-79.4,89.51-11.59,164.36,19,225.69,83,41,42.78,62.41,95.59,70,154.19,3.19,24.71,8.48,49.24,10.17,74,1.42,20.87.24,42.12-2,63-5.1,48-17.59,94.39-41.74,136.11a461.4,461.4,0,0,1-57.17,78c-27.13,29.94-57.7,56.79-87.35,84.37-4,3.69-11.16,5.27-16.93,5.44-21.79.61-43.61.24-65.42.24Z"/><path class="cls-1" d="M850.76,707.12a393.66,393.66,0,0,1-27.24-43.37c-20.82-38.5-15-50.19-34.41-75.43-9-11.77-15.34-16.09-31.5-37.52-5.63-7.48-9.73-13.49-17.91-25.52-10.06-14.78-19.33-53.48-19.27-53.82a215,215,0,0,0-60-129c22.25,1.57,67.56,7.93,113.08,38.93,58.56,39.88,80,95.05,86.35,112.08C876.53,538,875.16,576.67,874,601.38A318.6,318.6,0,0,1,850.76,707.12Z"/><path class="cls-1" d="M544.5,137.16c-5.73,35.08-11.82,70.1-17,105.26-1.62,11-7.62,12.29-16.72,12-29.85-1.09-59.71-2.12-89.58-2.41-15-.14-30.14,1-45.15,2.29-6.12.52-9-1.51-9.92-7.17q-8.24-50-16.46-99.9c-2.85-17.27-3.73-34.38,2.92-51.15,15.63-39.37,41.81-69.3,80.7-86.44,7.14-3.14,18.56-1.26,26.22,2.21,42.85,19.41,71,51.6,80.42,98.52,1.72,8.59,1.6,17.56,2.33,26.36Z"/><path class="cls-1" d="M739.39,977c-.17,59.07-15.12,97.73-37.33,133.26-7.35,11.76-21.72,19.31-33.46,28-2.59,1.92-8.12,1.66-11.51.36-14.92-5.7-25.45-15.17-27.26-32.52-1.19-11.29-4.65-22.33-6.24-33.6-4.1-29.12-22.91-50.21-38.66-73.11a99.75,99.75,0,0,1-12.49-25c-6.38-19.52,7.61-30.12,19.58-41.67q34.68-33.49,68.61-67.75c5.47-5.56,9.4-5,15-.95C719.26,896,740.93,938.66,739.39,977Z"/><path class="cls-1" d="M219.38,855.47c32,31.11,62.82,60.82,93.28,90.9,8.73,8.62,5.56,34.49-2,43.55-11.19,13.34-23.17,27.15-29.87,42.87-10.16,23.84-16.95,49.26-23.51,74.44-4.73,18.13-16.69,27.67-32.11,34.63-36.69-30.51-61.1-69.09-71.63-114.48-4.85-20.88-.76-44,.4-66.07C156.42,913.59,185.48,882.28,219.38,855.47Z"/><path class="cls-1" d="M444.08,984.23c10,0,20,.66,29.92-.16,13-1.09,25.81,15.06,19.42,28.18-9.62,19.77-17,40.62-25.47,61-4.2,10.11-10.5,18-22.65,17.89-11.06-.15-22-9.3-26-20.56-7.5-21.1-15.29-42.09-22.82-63.18-4.75-13.32,1.47-22.82,15.4-23.27,10.71-.35,21.44-.07,32.16-.07Z"/><path class="cls-1" d="M31.88,707.12a393.66,393.66,0,0,0,27.24-43.37c20.82-38.5,15-50.19,34.41-75.43,9-11.77,15.34-16.09,31.5-37.52,5.63-7.48,9.73-13.49,17.91-25.52,10.06-14.78,19.33-53.48,19.27-53.82a215,215,0,0,1,60-129C200,344,154.65,350.37,109.13,381.37c-58.56,39.88-80,95.05-86.35,112.08C6.11,538,7.48,576.67,8.6,601.38A318.85,318.85,0,0,0,31.88,707.12Z"/></svg>